<?xml version="1.0" encoding="UTF-8"?>
<svg width="400px" height="400px" viewBox="0 0 400 400" version="1.1" xmlns="http://www.w3.org/2000/svg" xmlns:xlink="http://www.w3.org/1999/xlink">
    <!-- Generator: Sketch 59.1 (86144) - https://sketch.com -->
    <title>vectorstock_20839880 copy</title>
    <desc>Created with Sketch.</desc>
    <defs>
        <polygon id="path-1" points="0.06 0.04 400 0.04 400 400 0.06 400"></polygon>
    </defs>
    <g id="Page-1" stroke="none" stroke-width="1" fill="none" fill-rule="evenodd">
        <g id="vectorstock_20839880-copy">
            <!-- <g id="Group-3">
                <mask id="mask-2" fill="white">
                    <use xlink:href="#path-1"></use>
                </mask>
                <g id="Clip-2"></g>
                <polygon id="Fill-1" fill="#FFFFFE" mask="url(#mask-2)" points="0.06 400 400 400 400 0.04 0.06 0.04"></polygon>
            </g> -->
            <path d="M156.52,325.746 C133.604,325.746 112.428,313.521 100.97,293.675 C89.512,273.829 89.512,249.378 100.97,229.532 L139.013,163.641 C144.684,153.818 155.165,147.768 166.508,147.768 C177.85,147.768 188.331,153.821 194,163.645 L155.962,229.529 C150.291,239.353 150.291,251.455 155.962,261.277 C161.633,271.101 172.114,277.152 183.457,277.152 L259.535,277.152 C281.175,277.151 301.17,265.607 311.989,246.866 C322.81,228.126 322.81,205.037 311.989,186.297 C328.597,215.061 328.597,250.499 311.99,279.263 C295.383,308.027 264.692,325.746 231.479,325.746 L156.52,325.746" id="Fill-4" fill="#7570EB"></path>
            <path d="M232.039,229.529 L194,163.645 C188.331,153.821 177.85,147.769 166.508,147.768 C155.165,147.767 144.684,153.818 139.013,163.641 L100.97,229.532 C89.512,249.378 89.512,273.829 100.97,293.675 C112.428,313.521 133.604,325.746 156.52,325.746 C123.307,325.746 92.617,308.027 76.01,279.265 C59.404,250.501 59.403,215.063 76.01,186.3 L114.05,120.414 C124.927,101.49 144.752,89.47 166.562,88.579 C188.37,87.688 209.11,98.049 221.496,116.021 L259.534,181.906 C265.206,191.729 265.206,203.832 259.534,213.655 C253.863,223.478 243.382,229.529 232.039,229.529" id="Fill-5" fill="#FB96C5"></path>
            <path d="M114.05,120.414 C130.541,91.85 161.018,74.254 194,74.254 C226.983,74.254 257.46,91.85 273.952,120.414 L311.989,186.297 C322.81,205.037 322.81,228.126 311.989,246.866 C301.17,265.607 281.175,277.152 259.535,277.152 L183.457,277.152 C172.114,277.152 161.633,271.101 155.962,261.277 C150.291,251.455 150.291,239.353 155.962,229.529 L232.039,229.529 C243.382,229.529 253.863,223.478 259.534,213.655 C265.206,203.832 265.206,191.729 259.534,181.906 L221.496,116.021 C209.11,98.049 188.37,87.688 166.562,88.579 C144.752,89.47 124.927,101.49 114.05,120.414" id="Fill-6" fill="#678BDB"></path>
        </g>
    </g>
</svg>